<svg width="12" height="12" viewBox="0 0 12 12" fill="none" xmlns="http://www.w3.org/2000/svg">
<path d="M6 2.4375C6.31066 2.4375 6.5625 2.18566 6.5625 1.875C6.5625 1.56434 6.31066 1.3125 6 1.3125C5.68934 1.3125 5.4375 1.56434 5.4375 1.875C5.4375 2.18566 5.68934 2.4375 6 2.4375Z" stroke="#949AAB" stroke-width="1.125" stroke-linecap="round" stroke-linejoin="round"/>
<path d="M6 6.5625C6.31066 6.5625 6.5625 6.31066 6.5625 6C6.5625 5.68934 6.31066 5.4375 6 5.4375C5.68934 5.4375 5.4375 5.68934 5.4375 6C5.4375 6.31066 5.68934 6.5625 6 6.5625Z" stroke="#949AAB" stroke-width="1.125" stroke-linecap="round" stroke-linejoin="round"/>
<path d="M6 10.6875C6.31066 10.6875 6.5625 10.4357 6.5625 10.125C6.5625 9.81434 6.31066 9.5625 6 9.5625C5.68934 9.5625 5.4375 9.81434 5.4375 10.125C5.4375 10.4357 5.68934 10.6875 6 10.6875Z" stroke="#949AAB" stroke-width="1.125" stroke-linecap="round" stroke-linejoin="round"/>
</svg>
