<svg width="30" height="30" viewBox="0 0 30 30" fill="none" xmlns="http://www.w3.org/2000/svg">
<path d="M9.51773 23.5C8.8944 23.5 8.36669 23.2839 7.93461 22.8519C7.50252 22.4198 7.28648 21.8921 7.28648 21.2687V18.6125H9.98523V6.49999L11.2602 7.77499L12.5352 6.49999L13.789 7.77499L15.064 6.49999L16.339 7.77499L17.614 6.49999L18.889 7.77499L20.164 6.49999L21.439 7.77499L22.714 6.49999V21.2687C22.714 21.8921 22.4979 22.4198 22.0659 22.8519C21.6338 23.2839 21.1061 23.5 20.4827 23.5H9.51773ZM20.4827 22.225C20.7661 22.225 20.9963 22.1364 21.1734 21.9594C21.3504 21.7823 21.439 21.5521 21.439 21.2687V8.62499H11.2602V18.6125H19.5265V21.2687C19.5265 21.5521 19.615 21.7823 19.7921 21.9594C19.9692 22.1364 20.1994 22.225 20.4827 22.225ZM12.3865 11.9825V10.7075H17.4865V11.9825H12.3865ZM12.3865 14.83V13.555H17.4865V14.83H12.3865ZM19.4627 11.9825C19.2927 11.9825 19.144 11.9187 19.0165 11.7912C18.889 11.6637 18.8252 11.515 18.8252 11.345C18.8252 11.175 18.889 11.0262 19.0165 10.8987C19.144 10.7712 19.2927 10.7075 19.4627 10.7075C19.6327 10.7075 19.7815 10.7712 19.909 10.8987C20.0365 11.0262 20.1002 11.175 20.1002 11.345C20.1002 11.515 20.0365 11.6637 19.909 11.7912C19.7815 11.9187 19.6327 11.9825 19.4627 11.9825ZM19.4627 14.7237C19.2927 14.7237 19.144 14.66 19.0165 14.5325C18.889 14.405 18.8252 14.2562 18.8252 14.0862C18.8252 13.9162 18.889 13.7675 19.0165 13.64C19.144 13.5125 19.2927 13.4487 19.4627 13.4487C19.6327 13.4487 19.7815 13.5125 19.909 13.64C20.0365 13.7675 20.1002 13.9162 20.1002 14.0862C20.1002 14.2562 20.0365 14.405 19.909 14.5325C19.7815 14.66 19.6327 14.7237 19.4627 14.7237ZM9.49648 22.225H18.2515V19.8875H8.56148V21.2687C8.56148 21.5521 8.65002 21.7823 8.82711 21.9594C9.00419 22.1364 9.22731 22.225 9.49648 22.225ZM8.56148 22.225V19.8875V22.225Z" fill="#8F97B1"/>
</svg>
