<svg width="17" height="17" viewBox="0 0 17 17" fill="none" xmlns="http://www.w3.org/2000/svg">
<path d="M7.23233 3.11694C7.23233 2.99617 7.18435 2.88035 7.09896 2.79495C7.01356 2.70956 6.89774 2.66158 6.77697 2.66158C6.6562 2.66158 6.54038 2.70956 6.45498 2.79495C6.36959 2.88035 6.32161 2.99617 6.32161 3.11694V5.84908C6.32151 6.37395 6.50275 6.88273 6.83466 7.28933C7.16657 7.69592 7.62878 7.97535 8.14304 8.08033V14.9562C8.14304 15.077 8.19101 15.1928 8.27641 15.2782C8.36181 15.3636 8.47763 15.4116 8.5984 15.4116C8.71916 15.4116 8.83499 15.3636 8.92038 15.2782C9.00578 15.1928 9.05375 15.077 9.05375 14.9562V8.08033C9.56802 7.97535 10.0302 7.69592 10.3621 7.28933C10.694 6.88273 10.8753 6.37395 10.8752 5.84908V3.11694C10.8752 2.99617 10.8272 2.88035 10.7418 2.79495C10.6564 2.70956 10.5406 2.66158 10.4198 2.66158C10.2991 2.66158 10.1832 2.70956 10.0978 2.79495C10.0124 2.88035 9.96447 2.99617 9.96447 3.11694V5.84908C9.96461 6.1317 9.8771 6.4074 9.71399 6.6382C9.55089 6.869 9.32021 7.04353 9.05375 7.13774V3.11694C9.05375 2.99617 9.00578 2.88035 8.92038 2.79495C8.83499 2.70956 8.71916 2.66158 8.5984 2.66158C8.47763 2.66158 8.36181 2.70956 8.27641 2.79495C8.19101 2.88035 8.14304 2.99617 8.14304 3.11694V7.13774C7.87658 7.04353 7.64591 6.869 7.4828 6.6382C7.31969 6.4074 7.23218 6.1317 7.23233 5.84908V3.11694ZM13.6073 14.9562V9.03657H12.2412C12.1205 9.03657 12.0047 8.9886 11.9193 8.9032C11.8339 8.81781 11.7859 8.70199 11.7859 8.58122V4.93837C11.7859 4.33456 12.0828 3.76992 12.4881 3.36374C12.8942 2.95847 13.4589 2.66158 14.0627 2.66158C14.1834 2.66158 14.2993 2.70956 14.3847 2.79495C14.4701 2.88035 14.518 2.99617 14.518 3.11694V14.9562C14.518 15.077 14.4701 15.1928 14.3847 15.2782C14.2993 15.3636 14.1834 15.4116 14.0627 15.4116C13.9419 15.4116 13.8261 15.3636 13.7407 15.2782C13.6553 15.1928 13.6073 15.077 13.6073 14.9562Z" fill="white"/>
</svg>
