<svg width="20" height="20" viewBox="0 0 20 20" fill="none" xmlns="http://www.w3.org/2000/svg">
<path d="M11.75 5.30467L3.05513 13.9962L2.85097 16.2412C2.84057 16.3568 2.85472 16.4732 2.89249 16.583C2.93026 16.6927 2.9908 16.7932 3.07013 16.8779C3.14806 16.9633 3.24291 17.0315 3.34864 17.0783C3.45437 17.1251 3.56868 17.1493 3.6843 17.1495C3.70962 17.1496 3.73492 17.1485 3.76013 17.1462L6.00513 16.942L14.6975 8.25134M11.75 5.30467L14.6975 8.25134M11.75 5.30467L13.8435 3.2112C13.9209 3.13372 14.0128 3.07226 14.1139 3.03032C14.2151 2.98838 14.3235 2.9668 14.4331 2.9668C14.5426 2.9668 14.651 2.98838 14.7522 3.03032C14.8533 3.07226 14.9452 3.13372 15.0226 3.2112L16.7901 4.9787C16.8676 5.0561 16.9291 5.148 16.971 5.24917C17.013 5.35033 17.0345 5.45877 17.0345 5.56829C17.0345 5.6778 17.013 5.78624 16.971 5.8874C16.9291 5.98857 16.8676 6.08048 16.7901 6.15787L14.6975 8.25134" stroke="#6C738A" stroke-width="1.5"/>
</svg>
