<svg width="17" height="17" viewBox="0 0 17 17" fill="none" xmlns="http://www.w3.org/2000/svg">
<path d="M3.93164 15.5827C3.4122 15.5827 2.97244 15.4026 2.61237 15.0426C2.2523 14.6825 2.07227 14.2428 2.07227 13.7233V11.5098H4.32122V1.41602L5.38372 2.47852L6.44622 1.41602L7.49102 2.47852L8.55351 1.41602L9.61601 2.47852L10.6785 1.41602L11.741 2.47852L12.8035 1.41602L13.866 2.47852L14.9285 1.41602V13.7233C14.9285 14.2428 14.7485 14.6825 14.3884 15.0426C14.0283 15.4026 13.5886 15.5827 13.0691 15.5827H3.93164ZM13.0691 14.5202C13.3053 14.5202 13.4971 14.4464 13.6447 14.2988C13.7922 14.1513 13.866 13.9594 13.866 13.7233V3.18685H5.38372V11.5098H12.2723V13.7233C12.2723 13.9594 12.3461 14.1513 12.4936 14.2988C12.6412 14.4464 12.833 14.5202 13.0691 14.5202ZM6.32227 5.98477V4.92227H10.5723V5.98477H6.32227ZM6.32227 8.35768V7.29518H10.5723V8.35768H6.32227ZM12.2191 5.98477C12.0775 5.98477 11.9535 5.93164 11.8473 5.82539C11.741 5.71914 11.6879 5.59518 11.6879 5.45352C11.6879 5.31185 11.741 5.18789 11.8473 5.08164C11.9535 4.97539 12.0775 4.92227 12.2191 4.92227C12.3608 4.92227 12.4848 4.97539 12.591 5.08164C12.6973 5.18789 12.7504 5.31185 12.7504 5.45352C12.7504 5.59518 12.6973 5.71914 12.591 5.82539C12.4848 5.93164 12.3608 5.98477 12.2191 5.98477ZM12.2191 8.26914C12.0775 8.26914 11.9535 8.21602 11.8473 8.10977C11.741 8.00352 11.6879 7.87956 11.6879 7.73789C11.6879 7.59622 11.741 7.47227 11.8473 7.36602C11.9535 7.25977 12.0775 7.20664 12.2191 7.20664C12.3608 7.20664 12.4848 7.25977 12.591 7.36602C12.6973 7.47227 12.7504 7.59622 12.7504 7.73789C12.7504 7.87956 12.6973 8.00352 12.591 8.10977C12.4848 8.21602 12.3608 8.26914 12.2191 8.26914ZM3.91393 14.5202H11.2098V12.5723H3.13477V13.7233C3.13477 13.9594 3.20855 14.1513 3.35612 14.2988C3.50369 14.4464 3.68963 14.5202 3.91393 14.5202ZM3.13477 14.5202V12.5723V14.5202Z" fill="#949AAB"/>
</svg>
