<svg width="44" height="12" viewBox="0 0 44 12" fill="none" xmlns="http://www.w3.org/2000/svg">
<path d="M3.64286 1.82143C3.64286 1.73618 3.60899 1.65442 3.54871 1.59414C3.48843 1.53386 3.40668 1.5 3.32143 1.5C3.23618 1.5 3.15442 1.53386 3.09414 1.59414C3.03386 1.65442 3 1.73618 3 1.82143V3.75C2.99992 4.1205 3.12786 4.47964 3.36215 4.76665C3.59644 5.05366 3.9227 5.2509 4.28571 5.325V10.1786C4.28571 10.2638 4.31958 10.3456 4.37986 10.4059C4.44014 10.4661 4.52189 10.5 4.60714 10.5C4.69239 10.5 4.77415 10.4661 4.83443 10.4059C4.89471 10.3456 4.92857 10.2638 4.92857 10.1786V5.325C5.29158 5.2509 5.61784 5.05366 5.85213 4.76665C6.08643 4.47964 6.21436 4.1205 6.21429 3.75V1.82143C6.21429 1.73618 6.18042 1.65442 6.12014 1.59414C6.05986 1.53386 5.97811 1.5 5.89286 1.5C5.80761 1.5 5.72585 1.53386 5.66557 1.59414C5.60529 1.65442 5.57143 1.73618 5.57143 1.82143V3.75C5.57153 3.9495 5.50976 4.14411 5.39462 4.30703C5.27949 4.46995 5.11666 4.59314 4.92857 4.65964V1.82143C4.92857 1.73618 4.89471 1.65442 4.83443 1.59414C4.77415 1.53386 4.69239 1.5 4.60714 1.5C4.52189 1.5 4.44014 1.53386 4.37986 1.59414C4.31958 1.65442 4.28571 1.73618 4.28571 1.82143V4.65964C4.09763 4.59314 3.9348 4.46995 3.81966 4.30703C3.70453 4.14411 3.64275 3.9495 3.64286 3.75V1.82143ZM8.14286 10.1786V6H7.17857C7.09332 6 7.01157 5.96614 6.95129 5.90586C6.89101 5.84558 6.85714 5.76382 6.85714 5.67857V3.10714C6.85714 2.68093 7.06671 2.28236 7.35279 1.99564C7.6395 1.70957 8.03807 1.5 8.46429 1.5C8.54953 1.5 8.63129 1.53386 8.69157 1.59414C8.75185 1.65442 8.78571 1.73618 8.78571 1.82143V10.1786C8.78571 10.2638 8.75185 10.3456 8.69157 10.4059C8.63129 10.4661 8.54953 10.5 8.46429 10.5C8.37904 10.5 8.29728 10.4661 8.237 10.4059C8.17672 10.3456 8.14286 10.2638 8.14286 10.1786Z" fill="#767676"/>
<path d="M12.132 2.67631C12.444 2.46831 12.768 2.32431 13.104 2.24431C13.44 2.1563 13.76 2.1123 14.064 2.1123C14.4 2.1123 14.708 2.16031 14.988 2.25631C15.276 2.35231 15.52 2.48831 15.72 2.6643C15.92 2.8323 16.076 3.0363 16.188 3.2763C16.3 3.50831 16.356 3.76431 16.356 4.04431C16.356 4.51631 16.232 4.9083 15.984 5.2203C15.744 5.53231 15.448 5.7523 15.096 5.8803C15.536 5.9763 15.9 6.18831 16.188 6.51631C16.476 6.83631 16.62 7.22431 16.62 7.68031C16.62 8.0883 16.54 8.43231 16.38 8.71231C16.22 8.99231 16.012 9.22031 15.756 9.39631C15.5 9.56431 15.208 9.68831 14.88 9.76831C14.56 9.84831 14.232 9.88831 13.896 9.88831C13.56 9.88831 13.224 9.85631 12.888 9.79231C12.552 9.72831 12.256 9.63631 12 9.51631L12.24 8.70031C12.376 8.74831 12.504 8.79631 12.624 8.84431C12.744 8.88431 12.868 8.92031 12.996 8.95231C13.124 8.97631 13.256 8.99631 13.392 9.01231C13.536 9.02831 13.7 9.0363 13.884 9.0363C14.084 9.0363 14.28 9.01231 14.472 8.96431C14.672 8.91631 14.848 8.83631 15 8.72431C15.152 8.61231 15.276 8.47231 15.372 8.30431C15.468 8.12831 15.516 7.91231 15.516 7.65631C15.516 7.43231 15.472 7.23631 15.384 7.06831C15.304 6.90031 15.188 6.76431 15.036 6.66031C14.892 6.55631 14.72 6.4803 14.52 6.4323C14.32 6.3763 14.1 6.34831 13.86 6.34831H12.96V5.53231H13.656C14.12 5.53231 14.504 5.42031 14.808 5.1963C15.12 4.9723 15.276 4.62831 15.276 4.16431C15.276 3.99631 15.24 3.8403 15.168 3.6963C15.104 3.5443 15.012 3.41631 14.892 3.3123C14.78 3.2003 14.644 3.11231 14.484 3.04831C14.332 2.98431 14.164 2.95231 13.98 2.95231C13.724 2.95231 13.484 2.98431 13.26 3.04831C13.036 3.11231 12.772 3.23231 12.468 3.40831L12.132 2.67631Z" fill="#282C39"/>
<g clip-path="url(#clip0_451_51600)">
<path d="M31.2451 8.4375C31.1339 8.4375 31.0251 8.40451 30.9326 8.3427C30.8401 8.28089 30.768 8.19304 30.7254 8.09026C30.6829 7.98748 30.6717 7.87438 30.6934 7.76526C30.7151 7.65615 30.7687 7.55592 30.8474 7.47725C30.926 7.39859 31.0263 7.34501 31.1354 7.32331C31.2445 7.3016 31.3576 7.31274 31.4604 7.35532C31.5632 7.39789 31.651 7.46999 31.7128 7.56249C31.7746 7.65499 31.8076 7.76375 31.8076 7.875C31.8076 8.02418 31.7484 8.16726 31.6429 8.27275C31.5374 8.37824 31.3943 8.4375 31.2451 8.4375ZM31.4326 10.125C31.3214 10.125 31.2126 10.158 31.1201 10.2198C31.0276 10.2816 30.9555 10.3695 30.9129 10.4722C30.8704 10.575 30.8592 10.6881 30.8809 10.7972C30.9026 10.9064 30.9562 11.0066 31.0349 11.0852C31.1135 11.1639 31.2138 11.2175 31.3229 11.2392C31.432 11.2609 31.5451 11.2498 31.6479 11.2072C31.7507 11.1646 31.8385 11.0925 31.9003 11C31.9621 10.9075 31.9951 10.7988 31.9951 10.6875C31.9951 10.5383 31.9359 10.3952 31.8304 10.2898C31.7249 10.1843 31.5818 10.125 31.4326 10.125ZM29.9326 8.625C29.8214 8.625 29.7126 8.65799 29.6201 8.7198C29.5276 8.78161 29.4555 8.86946 29.4129 8.97224C29.3704 9.07502 29.3592 9.18812 29.3809 9.29724C29.4026 9.40635 29.4562 9.50658 29.5349 9.58525C29.6135 9.66391 29.7138 9.71749 29.8229 9.73919C29.932 9.7609 30.0451 9.74976 30.1479 9.70718C30.2507 9.66461 30.3385 9.59251 30.4003 9.50001C30.4621 9.40751 30.4951 9.29875 30.4951 9.1875C30.4951 9.03832 30.4359 8.89524 30.3304 8.78975C30.2249 8.68426 30.0818 8.625 29.9326 8.625ZM32.7451 8.8125C32.6339 8.8125 32.5251 8.84549 32.4326 8.9073C32.3401 8.96911 32.268 9.05696 32.2254 9.15974C32.1829 9.26252 32.1717 9.37562 32.1934 9.48474C32.2151 9.59385 32.2687 9.69408 32.3474 9.77275C32.426 9.85141 32.5263 9.90499 32.6354 9.92669C32.7445 9.9484 32.8576 9.93726 32.9604 9.89468C33.0632 9.85211 33.151 9.78001 33.2128 9.68751C33.2746 9.59501 33.3076 9.48625 33.3076 9.375C33.3076 9.22582 33.2484 9.08274 33.1429 8.97725C33.0374 8.87176 32.8943 8.8125 32.7451 8.8125ZM40.2451 1.5H38.8998C38.8013 1.49991 38.7038 1.51934 38.6129 1.55715C38.522 1.59497 38.4395 1.65042 38.3701 1.72031L37.067 3.02344L31.1514 4.0125C31.0149 4.03367 30.8871 4.09281 30.7827 4.18316C30.6782 4.27352 30.6013 4.39144 30.5607 4.52344C30.5194 4.65394 30.5147 4.79325 30.5469 4.92628C30.5791 5.05931 30.6471 5.18099 30.7436 5.27813L35.342 9.87656C35.4812 10.0162 35.6698 10.0953 35.867 10.0969C35.945 10.0963 36.0225 10.0836 36.0967 10.0594C36.2287 10.0188 36.3466 9.94187 36.437 9.83743C36.5273 9.73298 36.5864 9.60522 36.6076 9.46875L37.5967 3.55313L38.8998 2.25H40.2451C40.3446 2.25 40.44 2.21049 40.5103 2.14017C40.5806 2.06984 40.6201 1.97446 40.6201 1.875C40.6201 1.77554 40.5806 1.68016 40.5103 1.60984C40.44 1.53951 40.3446 1.5 40.2451 1.5Z" fill="#767676"/>
</g>
<path d="M42.4801 2.21973H43.2481V9.77973H42.2161V3.32373L40.8601 3.94773L40.6201 3.07173L42.4801 2.21973Z" fill="#282C39"/>
<defs>
<clipPath id="clip0_451_51600">
<rect width="12" height="12" fill="white" transform="translate(28.6201)"/>
</clipPath>
</defs>
</svg>
